<?xml version="1.0" encoding="UTF-8"?>
<svg id="Layer_1" data-name="Layer 1" xmlns="http://www.w3.org/2000/svg" viewBox="0 0 610.26 664.49">
  <defs>
    <style>
      .cls-1 {
        fill: #010200;
      }

      .cls-2 {
        fill: #23ae32;
      }

      .cls-3 {
        fill: #21f449;
      }

      .cls-4 {
        fill: #562f00;
      }
    </style>
  </defs>
  <path class="cls-2" d="M.98,375.67c-.14,1.75.42,3.84-.96,5.28v-5.28h.96Z"/>
  <path class="cls-2" d="M.98,391.49H.02v-5.28c1.21,1.5.79,3.56.96,5.28Z"/>
  <g>
    <path class="cls-2" d="M371.73,663.4l-3.84.96c-4.5-.3-9.47.4-13.91,0-.66-.06-2.65-.86-3.36-.96,1.43-.5,3.65.48,4.56.48h11.51c1.06,0,3.47-.99,5.04-.48h0Z"/>
    <path class="cls-4" d="M471.03,370.37c-1.25-8.82-2.57-17.71-3.38-26.59-2.98-32.65-2.48-65.92.48-98.55,17.94,12.33,33.34,29.94,55.05,35.83,5.07,1.38,10.91,2.47,16.17,2.05,4.36-.35,4.35-2.68,8.16,1.44,4.32,4.66,9.81,16.75,12.64,22.85,7.49,16.15,14.49,35.23,18.36,52.62.85,3.81,3.53,10.05-2.21,10.38l-105.27-.04h0Z"/>
    <path class="cls-4" d="M541.03,602.02c-8.52-.57-16.65,3.16-24.79-.86-13.34-6.59-28.76-31.42-36.2-44.37-32.46-56.52-48.88-124.9-55.55-189.51-2.33-22.6-1.77-44.97-3.38-67.59-.05-4.5.18-14.17,2.23-17.95,1.19-2.2,4.69-4.17,6.67-6.28,4.3-4.57,7.68-10.64,12.47-14.87-.33,6.44-.44,12.95-.73,19.41-2.59,57.93,4.42,113.73,19.23,169.73,11.56,43.72,29.73,92.67,57.33,128.75,4.24,5.55,13.48,17.13,18.88,20.93,1.46,1.03,3.74.84,3.85,2.61h-.01Z"/>
    <path class="cls-4" d="M475.81,393.89l106.98,1.17c.49.34.41.93.47,1.45.89,7.39-.24,17.85-.52,25.42s-.27,25.82-3.72,31.77c-1.33,2.31-8.23,4.92-11.09,6.65-5.54,3.36-10.74,7.56-16.39,10.95-2.14,1.29-10.38,6.39-12.23,6.51-1.15.07-5.01-2.12-6.28-2.79-8.94-4.74-22-15.46-31.24-17.68-2.58-.62-8.87-.76-10.63-1.84-1.22-.75-4.26-11.54-4.94-13.76-4.77-15.62-8.38-31.62-10.42-47.84h.01Z"/>
    <path class="cls-4" d="M530.96,260.57c-2.09,1.53-11.94-4.91-14.06-6.32-11.11-7.37-20.74-16.77-31.28-24.84-4.17-3.2-14.28-8.59-16.47-12.78-1.53-2.93,1.56-11.47,1.86-15.05,6.85,2.41,12.04,6.9,17.49,11.52,10.26,8.7,28.61,25.6,36.22,36.2,2.38,3.31,3.52,8,6.24,11.26h0Z"/>
    <path class="cls-4" d="M538.15,552.62c-.7.48-3.71-2.97-4.23-3.68-1.07-1.48-2.26-3.2-1.98-5.14,3.03-9.68,8.01-18.89,10.67-28.7,1.17-4.32.59-10.31,3.95-13.31,2.81-2.51,16.3-9.98,19.68-10.1,3.83-.13,1.53,5.09.82,7.58-1.72,6.03-5.13,13.76-7.87,19.47-5.74,11.98-13.5,23.02-21.04,33.87h0Z"/>
    <polygon class="cls-4" points="503.77 487.71 521.79 498.28 517.05 516.18 514.7 515.42 503.15 486.93 503.77 487.71"/>
    <g>
      <path class="cls-1" d="M371.73,663.4c-1.57-.51-3.98.48-5.04.48h-11.51c-.9,0-3.13-.98-4.56-.48-12.95-1.78-25.47-5.29-35.5-14.14-4.05-3.57-4.92-6.92-10.65-8.53-9.56-2.69-22.94-3.1-33.15-4.74-13.68-2.21-28.36-5.14-41.34-9.98-6.06-2.26-11.65-5.6-17.8-7.67-1.64-.11-3.35,1.07-4.82,1.82-10.73,5.51-19.91,13.34-31.35,18.05-30.92,12.72-78.5,15.73-97.43-17.65-12.97-22.87-1.86-55.37,7.82-77.7l8.56-16.13c-11.44-1.06-23.09-10.98-28.21-20.95-1.95-3.79-2.75-8.18-4.89-11.89-5.92-2.02-11.44-2.51-17.1-5.44-19.81-10.25-29.86-35.87-28.45-57.38.16-2.45,1.44-4.97.96-7.58-10.34-6.98-15.1-20-16.31-31.99-.17-1.71.25-3.78-.96-5.28v-5.28c1.38-1.43.81-3.53.96-5.28,1.41-17.05,10.95-38.48,25.94-47.68,3.45-2.12,12.47-4.59,14.33-6.3,2.34-2.15,5.53-10.53,8.19-13.87,1.67-2.1,8.93-7.46,9.33-8.41,1.14-2.67-3.14-13.11-3.52-17.08-2.22-23.06,14.15-48.76,37.64-52.88,1.44-.25,6.94.29,7.32-1.79.1-.56-3.7-8.9-4.26-10.48C52.71,94.16,164.56-4.41,282.3.15c95.33,3.69,181.64,69.81,187.98,168.83,55.48,31.54,98,85.54,120.99,144.7,31.35,80.67,24.65,177.35-25.87,248.68-1.33,1.88-9.93,12.24-10.01,13.06-.33,3.49,14.84,13.55,17.78,16.75,5.55,6.04,7.19,16.96.96,23.04-11.1,10.83-47.73,19.3-61.74,13.27-1.82-.78-4.05-2.75-5.89-3.22-4.53-1.18-10.33,1.95-14.78,2.99-7.35,1.72-15.97,3.4-23.44,4.38-9.26,1.21-22.08.09-29.86,4.68-4.95,2.92-9.42,6.95-14.59,9.87-15.49,8.76-34.47,14.22-52.12,16.22h.02ZM223.11,259.07c7.26.46,14.95-1.47,22.18-.83,19.14,1.68,39.93,17.24,46.91,35.1,1.48,3.79,1.81,12.52,6.42,13.25,8.33,1.32,27.62-3.08,36.18-5.49,85.83-24.16,139.24-102.23,93.78-188.24C382.78,26.22,268.81,2.22,185.14,47.88c-60.38,32.95-90.27,99.56-64.01,165.69,3.07,7.74,7.1,13.66,11.51,20.62l2.95-3.27c6.8-3.05,13.95-7.76,21.25-9.45,25.93-6.01,58.96,11.45,66.27,37.6ZM530.96,260.57c-2.72-3.27-3.86-7.96-6.24-11.26-7.61-10.59-25.96-27.5-36.22-36.2-5.45-4.62-10.64-9.11-17.49-11.52-.3,3.58-3.39,12.11-1.86,15.05,2.19,4.19,12.3,9.58,16.47,12.78,10.53,8.06,20.17,17.47,31.28,24.84,2.12,1.41,11.98,7.84,14.06,6.32h0ZM272.45,356.01c1.79,5.27-1.79,17.85-7.96,18.68-7.74,1.05-20.76-14.69-25.71-2.23-2.95,7.43-2.14,14.1-9.02,20.24-1.73,1.55-9.29,6.31-11.33,6.45-4.08.28-9.37-5.07-9.67-8.99-.62-7.87,7.9-7.01,11.02-12.72,5.84-10.7.93-26.1,19.4-27.6,5.1-.42,10.09,1.17,15.06,1.15,2.85-5.64,3.9-11.79,8.87-16.07,3.86-3.33,5.6-2.97,7.79-8.52,9.69-24.61-11.59-48.93-37.05-46.63-11.42,1.03-6.52,14.37-13.23,20.34-8.63,7.69-28.69,8.05-33.95-4.36-4.59-10.82,5.13-15.51,13.7-10.34,2.44,1.47,4.92,7.79,6.16.6.83-4.84-1.72-16.13-3.69-20.82-4.39-10.45-17.93-21.48-29.44-22.36-13.08-1-31.45,7.07-37.25,19.33-3.73,7.89-3.97,23.67-16.42,21.86-7.55-1.09-8.07-12.53-7.47-18.42.49-4.81,7.04-11.81.02-13.46-22.2-5.23-39.8,16.91-31.57,37.8,3.65,9.26,9.78,7.07,17.48,10.34,6.62,2.81,12.67,9.6,12.66,17.11,0,2.71-1.92,6.26-.75,8.86.84,1.86,7.55,3.29,9.79,4.59,15.76,9.19-1.66,27.82,10.09,39.31,3.22,3.15,10.26,4.85,11.01,9.61,1.46,9.26-9.06,11.96-15.95,8.28-7.46-3.98-15.49-16.92-16.5-25.23-.68-5.64.88-11.36.35-17.03-7.37-4.03-18.14-4.74-18.68-15.52-.29-5.74,4.42-11.48-3.86-13.84-9.89-2.82-18.27,5.48-22.33,13.66-5.71,11.5-4.26,25.62.81,37.12,7.52,17.04,15.87,9.76,27.71,17.37,6.09,3.92,7.09,9.28,10.11,15.31,7.98-.07,14.44.65,21.6,4.3,8.66,4.41,19.7,15.05,24.37,23.59.76,1.4,2.52,8.57,3.95,3.79,4.51-15.05,2.64-45.15-.84-60.61-5.99-26.61-15.67-36.33-29.52-57.77-3.19-4.94-10.23-15.91-1.44-19.4,7.12-2.83,11.63,2.8,15.71,7.54,14.11,16.37,24.31,37.8,31.63,58.06.58,1.6.72,5.7,2.51,6.16,2.18.56,2.27-3.48,3.1-4.92,1.7-2.94,8.19-6.18,11.19-8.48,6.93-5.31,26.54-24.54,33.7-25.77,3.67-.63,6.26.33,8.53,3.23,5.54,7.08-2.06,11.89-7.29,15.75-9.79,7.21-20.11,12.14-28.44,21.44-11.9,13.29-19,31.42-17.28,49.38l1.11,1.13c4.43-1.96,8.18-5.13,12.62-7.06,10.64-4.61,23.17-4.12,33.59-8.62,4.96-2.14,8.85-6.39,14.89-4.02,5.26,2.06,3.88,9.33,1.3,13.02-7.73,11.06-37.38,12.4-50.41,19.61-20.86,11.54-23.86,33.51-26.05,55.23,2.86-.62,5.21-2.22,8.15-3.11,13.94-4.21,29.44,0,43.01-5.91,6.5-2.83,13.56-11.26,19.82-2.72,2.36,3.22,1.92,6.14-.46,9.12-6.84,8.56-23.55,15.25-34.31,16.05-9.09.67-19.11-2.18-27.41,2.32-7.67,4.16-11.87,13.48-14.56,21.41.32.65,1.31.05,1.79-.13,6.25-2.4,9.31-6.25,17.48-7.94,5.09-1.05,5.78-.15,10.25.16,5.57.39,4.76-3.42,8.42-5.47,1.32-.74,3.03-.93,4.52-.77,4.96.51,15.81,13.91,21.67,17.19,20.34,11.38,51.86-1.46,57.47-24.36,2.61-10.68-3.41-10.38-8.87-17.04-3.67-4.48-8.91-13.96-10.78-19.43-1.56-4.57-1.83-12.26-5.38-15.24-5.11-4.29-11.49-6.48-18.15-6.79-11.64-.53-9.57,5.15-14.24,12.61-3.34,5.34-13.52,12.62-19.8,13.28-5.91.63-13.24-2.19-13.67-8.88-.82-12.5,11.18-6.56,16.57-11.72,2.86-2.73,4.19-9.2,5.89-12.81,8.2-17.5,32.86-11.27,47.59-7.54,5.87-21.96,24-37.27,41.68-49.98.21-.7-.19-.93-.44-1.39-1.05-1.96-5.1-6.75-6.74-8.61-4.85-5.47-10.55-10.97-18.21-11.76h-.02ZM471.03,370.37l105.27.04c5.74-.34,3.06-6.57,2.21-10.38-3.87-17.39-10.87-36.48-18.36-52.62-2.83-6.1-8.32-18.19-12.64-22.85-3.81-4.12-3.8-1.79-8.16-1.44-5.26.42-11.1-.67-16.17-2.05-21.71-5.89-37.11-23.5-55.05-35.83-2.96,32.63-3.46,65.9-.48,98.55.81,8.88,2.13,17.77,3.38,26.59h0ZM541.03,602.02c-.12-1.78-2.39-1.58-3.85-2.61-5.4-3.81-14.63-15.38-18.88-20.93-27.59-36.08-45.77-85.03-57.33-128.75-14.8-56-21.82-111.81-19.23-169.73.29-6.46.4-12.97.73-19.41-4.78,4.23-8.17,10.3-12.47,14.87-1.98,2.11-5.48,4.08-6.67,6.28-2.05,3.79-2.28,13.46-2.23,17.95,1.61,22.63,1.05,45,3.38,67.59,6.67,64.61,23.09,132.99,55.55,189.51,7.44,12.95,22.87,37.78,36.2,44.37,8.14,4.02,16.27.3,24.79.86h.01ZM393.18,302.88c-2.88.6-9.04,5.52-12.02,7.17-16.2,8.95-49.31,19.32-67.69,20.56-4.96.34-15.56-1.02-19.56.59-1.62.65-4.08,4.64-3.65,6.24.36,1.32,12.66,9.24,14.8,11.13,2.41,2.12,12.84,15.67,14.53,15.52l76.11-35.65.47-24.46-.79-1.14c-.75-.18-1.48-.11-2.22.04h.02ZM25.44,375.19h7.43c.39,0,3.35,1.5,3.84,1.91,3.01,2.5,2.3,6.68,1.68,10.07.8.81,8.08-3.37,9-4.53.15-.93-4.03-6.62-4.77-8.09-3.52-6.99-5.07-15.58-5.67-23.34-7.12,5.79-10.35,15.1-11.51,23.98h0ZM411.44,454.22c1.31-2.24-4.7-28.27-5.5-32.9-3.79-21.91-6.23-44.09-7.83-66.27-22.61,9.24-45.62,17.87-67.15,29.48-16.3,8.8-36.15,21.36-46.42,37.03-1.42,2.16-6.64,10.34-4.77,12.5,4.01,1.65,7.56-1.27,11.73.98,6.19,3.34,4.5,12.29-1.59,14.91-6.7,2.88-14.92-2.61-9.86,9.01.69,1.6,5.47,9.93,6.63,10.15,1.82.35,7.6-7.9,11.19-8.81,3.4-.86,8.01-.21,9.71,3.27,3.36,6.87-5.25,11.52-6.32,17.58,19.3,7.01,39.72,4.19,58.87-1.77,18.44-5.74,35.08-14.97,51.33-25.16h-.02ZM475.81,393.89c2.05,16.22,5.66,32.22,10.42,47.84.68,2.22,3.72,13.01,4.94,13.76,1.76,1.08,8.05,1.22,10.63,1.84,9.24,2.23,22.3,12.95,31.24,17.68,1.27.67,5.13,2.87,6.28,2.79,1.85-.12,10.08-5.22,12.23-6.51,5.64-3.39,10.85-7.59,16.39-10.95,2.86-1.73,9.76-4.35,11.09-6.65,3.44-5.96,3.44-24.46,3.72-31.77s1.41-18.03.52-25.42c-.06-.51.02-1.1-.47-1.45l-106.98-1.17h-.01ZM107.46,417.87c-.75.98,3.22,6.98,3.77,8.45,1.92,5.16,2.12,16.29-5,17.41-2.62.41-7.35-.3-8.95-2.5-2.7-3.72-2.28-6.49-2.9-10.53-.88-5.8-6.25-4.64-10.68-7.55-4.81-3.16-5.69-7.33-3.96-12.61,1.33-4.05,5.26-7.74-1.43-9.34-34.73-8.29-53.85,44.98-24.25,65.01,8.06,5.46,15.35,3.68,23.42,6.8,9.02,3.48,5.82,13.36,9.4,20.81,6.87,14.26,21.46,11.13,34.5,11.06,4.24.86,6.68,5.6,10.04,7.94-.05-12.11-5.76-22.77-15.38-29.93-8.91-6.63-20.74-8.44-29.65-14.95-6.73-4.91-20.98-18.72-10.13-26.35,7.01-4.93,12.62,6.87,17.51,9.86,12.79,7.82,32.44,13.06,42.47,24.19.84.94,4.93,7.81,6.22,6.48,2.59-25.21-7.71-57.59-35.01-64.26h0ZM418.72,479.25c-10.91,5.92-21.65,12.14-33.1,17.01-26.65,11.32-56.3,17.52-85.06,10.85-.56.16-3.46,8.65-4.21,10.2-15.01,31.49-56.93,45.52-87.71,28.37-5.24-2.92-9.19-7.33-14.68-9.7-6.05,1.28-12.39.63-18.42,2s-12.6,5.67-18.2,8.65c35.65,40.4,87.8,65.4,141.96,67.38.92-47.07,35.66-94.05,80.58-108.14,14.52-4.56,29.86-6.26,45.08-6l-6.24-20.62h0ZM503.77,487.71l-.62-.78,11.55,28.49,2.35.76,4.74-17.9-18.02-10.57h0ZM538.15,552.62c7.55-10.86,15.3-21.9,21.04-33.87,2.73-5.71,6.15-13.44,7.87-19.47.71-2.48,3.01-7.71-.82-7.58-3.38.12-16.86,7.59-19.68,10.1-3.36,3-2.78,8.99-3.95,13.31-2.66,9.8-7.63,19.01-10.67,28.7-.28,1.93.91,3.66,1.98,5.14.52.71,3.52,4.15,4.23,3.68h0ZM479.62,605.35c.16-.52-.04-.93-.23-1.4-1.15-2.8-7.72-10.28-9.93-13.58-9.88-14.73-19.32-31.98-26.68-48.13-2.48-5.43-3.24-13.64-9.76-15.66-14.27-4.42-38.08-1.38-51.69,4.72-28.01,12.54-60.39,53.51-57.56,85.34.54,6.04,2.78,9.12,7.18,12.96,2.75,2.4,10.3,8.23,13.91,6.7,4.67-1.99,2.62-17.27,11.28-17.54.99-.03,5.46.65,6.16,1.08,1.67,1.02,1.9,7.65,1.63,9.63-.47,3.47-4.12,8.89,1.53,10.23,14.36,3.41,45.51-12.99,57.84-20.88,5.93-3.8,13.72-9.03,18.47-14.15,4.58-4.94,3.19-6.76,11.76-6.02,7.07.61,4.93,5.2,8.36,8.77s13.83-.23,17.75-2.07h-.02ZM113.63,618.75c1.89-3.3,1.47-12.46,4.85-14.1,5.97-2.89,11.83-1.74,11.95,5.81s-6.42,13.84,7,13.13c16.47-.86,30.42-7.89,44.21-16.22.82-.49,2.49-1.22,2.59-2.25.09-1.26-.94-1.86-1.73-2.61-3.82-3.62-9.92-6.48-14.28-9.7-12.14-8.94-25.62-23.31-34.57-35.45-1.93-2.63-13.67-20.77-14.93-21.05-.67-.14-.82.38-1.12.79-4.19,8.45-9.65,16.59-12.9,25.47-5.28,14.44-14.7,44.08,1.96,53.91,1.26.75,5.77,3.03,6.98,2.26h-.01Z"/>
      <path class="cls-3" d="M272.45,356.01c7.66.79,13.36,6.29,18.21,11.76,1.64,1.85,5.69,6.65,6.74,8.61.25.46.65.69.44,1.39-17.68,12.71-35.81,28.02-41.68,49.98-14.73-3.73-39.39-9.95-47.59,7.54-1.7,3.62-3.03,10.08-5.89,12.81-5.39,5.16-17.38-.78-16.57,11.72.44,6.7,7.76,9.51,13.67,8.88,6.29-.67,16.47-7.95,19.8-13.28,4.67-7.46,2.6-13.14,14.24-12.61,6.66.3,13.04,2.5,18.15,6.79,3.55,2.98,3.81,10.68,5.38,15.24,1.88,5.48,7.11,14.95,10.78,19.43,5.45,6.66,11.48,6.36,8.87,17.04-5.61,22.9-37.12,35.74-57.47,24.36-5.85-3.27-16.71-16.68-21.67-17.19-1.49-.15-3.21.03-4.52.77-3.66,2.05-2.85,5.86-8.42,5.47-4.47-.31-5.16-1.21-10.25-.16-8.17,1.69-11.23,5.54-17.48,7.94-.47.18-1.47.79-1.79.13,2.69-7.94,6.89-17.25,14.56-21.41,8.3-4.5,18.32-1.65,27.41-2.32,10.76-.8,27.48-7.49,34.31-16.05,2.39-2.99,2.83-5.9.46-9.12-6.26-8.54-13.32-.11-19.82,2.72-13.57,5.91-29.07,1.7-43.01,5.91-2.95.89-5.3,2.49-8.15,3.11,2.19-21.72,5.19-43.69,26.05-55.23,13.03-7.21,42.68-8.55,50.41-19.61,2.58-3.69,3.96-10.96-1.3-13.02-6.04-2.37-9.93,1.89-14.89,4.02-10.42,4.49-22.95,4-33.59,8.62-4.44,1.93-8.2,5.1-12.62,7.06l-1.11-1.13c-1.72-17.96,5.38-36.09,17.28-49.38,8.33-9.31,18.64-14.23,28.44-21.44,5.24-3.86,12.83-8.67,7.29-15.75-2.27-2.9-4.86-3.86-8.53-3.23-7.16,1.23-26.77,20.46-33.7,25.77-3,2.3-9.49,5.54-11.19,8.48-.83,1.44-.92,5.48-3.1,4.92-1.79-.46-1.93-4.56-2.51-6.16-7.32-20.26-17.51-41.68-31.63-58.06-4.08-4.74-8.59-10.37-15.71-7.54-8.79,3.49-1.75,14.47,1.44,19.4,13.85,21.43,23.53,31.16,29.52,57.77,3.48,15.46,5.35,45.56.84,60.61-1.43,4.78-3.19-2.39-3.95-3.79-4.67-8.54-15.71-19.18-24.37-23.59-7.16-3.65-13.62-4.37-21.6-4.3-3.02-6.03-4.02-11.4-10.11-15.31-11.84-7.61-20.19-.33-27.71-17.37-5.07-11.5-6.52-25.62-.81-37.12,4.06-8.17,12.45-16.47,22.33-13.66,8.29,2.36,3.58,8.1,3.86,13.84.54,10.79,11.3,11.5,18.68,15.52.52,5.67-1.04,11.39-.35,17.03,1.01,8.3,9.04,21.24,16.5,25.23,6.89,3.68,17.41.99,15.95-8.28-.75-4.75-7.79-6.46-11.01-9.61-11.75-11.48,5.68-30.12-10.09-39.31-2.24-1.31-8.96-2.73-9.79-4.59-1.17-2.61.75-6.16.75-8.86,0-7.51-6.04-14.3-12.66-17.11-7.7-3.27-13.83-1.08-17.48-10.34-8.23-20.89,9.37-43.03,31.57-37.8,7.02,1.65.46,8.65-.02,13.46-.6,5.88-.09,17.32,7.47,18.42,12.45,1.8,12.68-13.97,16.42-21.86,5.8-12.26,24.17-20.33,37.25-19.33,11.51.88,25.05,11.91,29.44,22.36,1.97,4.69,4.52,15.98,3.69,20.82-1.24,7.19-3.72.87-6.16-.6-8.57-5.17-18.29-.48-13.7,10.34,5.26,12.41,25.32,12.05,33.95,4.36,6.7-5.97,1.81-19.31,13.23-20.34,25.46-2.3,46.73,22.02,37.05,46.63-2.19,5.55-3.92,5.19-7.79,8.52-4.97,4.29-6.02,10.43-8.87,16.07-4.96.02-9.96-1.57-15.06-1.15-18.47,1.5-13.56,16.9-19.4,27.6-3.12,5.71-11.63,4.85-11.02,12.72.31,3.92,5.6,9.27,9.67,8.99,2.05-.14,9.6-4.9,11.33-6.45,6.88-6.14,6.07-12.81,9.02-20.24,4.95-12.46,17.97,3.27,25.71,2.23,6.17-.83,9.75-13.41,7.96-18.68h.02Z"/>
      <path class="cls-2" d="M411.44,454.22c-16.25,10.19-32.89,19.42-51.33,25.16-19.14,5.96-39.57,8.78-58.87,1.77,1.07-6.06,9.68-10.71,6.32-17.58-1.7-3.48-6.31-4.13-9.71-3.27-3.59.91-9.37,9.16-11.19,8.81-1.16-.22-5.93-8.56-6.63-10.15-5.06-11.61,3.16-6.13,9.86-9.01,6.09-2.62,7.78-11.57,1.59-14.91-4.17-2.25-7.72.67-11.73-.98-1.87-2.15,3.35-10.34,4.77-12.5,10.27-15.67,30.12-28.23,46.42-37.03,21.53-11.62,44.54-20.25,67.15-29.48,1.6,22.18,4.04,44.36,7.83,66.27.8,4.63,6.81,30.67,5.5,32.9h.02Z"/>
      <path class="cls-2" d="M479.62,605.35c-3.91,1.83-14.38,5.58-17.75,2.07s-1.28-8.17-8.36-8.77c-8.57-.73-7.18,1.08-11.76,6.02-4.74,5.12-12.53,10.35-18.47,14.15-12.33,7.9-43.47,24.29-57.84,20.88-5.65-1.34-2-6.76-1.53-10.23.27-1.99.05-8.62-1.63-9.63-.7-.43-5.17-1.11-6.16-1.08-8.66.26-6.6,15.55-11.28,17.54-3.61,1.54-11.16-4.29-13.91-6.7-4.4-3.84-6.64-6.92-7.18-12.96-2.83-31.83,29.55-72.8,57.56-85.34,13.61-6.09,37.41-9.14,51.69-4.72,6.52,2.02,7.28,10.23,9.76,15.66,7.36,16.15,16.8,33.4,26.68,48.13,2.21,3.29,8.78,10.78,9.93,13.58.19.47.39.88.23,1.4h.02Z"/>
      <path class="cls-4" d="M418.72,479.25l6.24,20.62c-15.22-.26-30.56,1.44-45.08,6-44.91,14.1-79.65,61.07-80.58,108.14-54.16-1.98-106.31-26.98-141.96-67.38,5.6-2.98,11.97-7.24,18.2-8.65s12.38-.72,18.42-2c5.48,2.37,9.44,6.78,14.68,9.7,30.78,17.15,72.71,3.12,87.71-28.37.74-1.56,3.65-10.04,4.21-10.2,28.75,6.67,58.41.47,85.06-10.85,11.45-4.87,22.19-11.09,33.1-17.01h0Z"/>
      <path class="cls-3" d="M107.46,417.87c27.3,6.66,37.6,39.05,35.01,64.26-1.29,1.33-5.38-5.55-6.22-6.48-10.03-11.13-29.68-16.37-42.47-24.19-4.89-2.99-10.5-14.8-17.51-9.86-10.85,7.63,3.4,21.44,10.13,26.35,8.92,6.51,20.74,8.32,29.65,14.95,9.62,7.16,15.33,17.83,15.38,29.93-3.36-2.34-5.8-7.08-10.04-7.94-13.05.07-27.63,3.2-34.5-11.06-3.59-7.45-.38-17.33-9.4-20.81-8.07-3.12-15.36-1.34-23.42-6.8-29.6-20.03-10.47-73.3,24.25-65.01,6.68,1.6,2.75,5.29,1.43,9.34-1.73,5.28-.85,9.45,3.96,12.61,4.43,2.91,9.8,1.75,10.68,7.55.61,4.04.2,6.81,2.9,10.53,1.6,2.2,6.33,2.91,8.95,2.5,7.12-1.12,6.92-12.25,5-17.41-.55-1.47-4.52-7.48-3.77-8.45h0Z"/>
      <path class="cls-2" d="M113.63,618.75c-1.21.78-5.71-1.51-6.98-2.26-16.66-9.83-7.24-39.47-1.96-53.91,3.25-8.88,8.71-17.02,12.9-25.47.3-.41.46-.93,1.12-.79,1.26.27,12.99,18.42,14.93,21.05,8.95,12.14,22.43,26.51,34.57,35.45,4.37,3.22,10.46,6.08,14.28,9.7.79.75,1.82,1.35,1.73,2.61-.1,1.03-1.78,1.76-2.59,2.25-13.79,8.33-27.74,15.36-44.21,16.22-13.42.7-6.88-5.64-7-13.13s-5.98-8.7-11.95-5.81c-3.37,1.63-2.95,10.8-4.85,14.1h.01Z"/>
      <path class="cls-4" d="M393.18,302.88c.74-.15,1.47-.23,2.22-.04l.79,1.14-.47,24.46-76.11,35.65c-1.7.16-12.13-13.39-14.53-15.52-2.14-1.89-14.45-9.81-14.8-11.13-.43-1.6,2.04-5.59,3.65-6.24,3.99-1.6,14.59-.25,19.56-.59,18.38-1.24,51.49-11.61,67.69-20.56,2.98-1.65,9.14-6.57,12.02-7.17h-.02Z"/>
      <path class="cls-2" d="M25.44,375.19c1.16-8.88,4.39-18.19,11.51-23.98.61,7.76,2.15,16.35,5.67,23.34.74,1.47,4.92,7.16,4.77,8.09-.92,1.17-8.19,5.34-9,4.53.62-3.4,1.33-7.57-1.68-10.07-.49-.41-3.46-1.91-3.84-1.91h-7.43,0Z"/>
      <g>
        <path class="cls-2" d="M223.11,259.07c-7.31-26.14-40.34-43.61-66.27-37.6-7.3,1.69-14.45,6.4-21.25,9.45l-2.95,3.27c-4.41-6.96-8.44-12.89-11.51-20.62-26.26-66.13,3.64-132.74,64.01-165.69,83.66-45.66,197.63-21.66,243.43,64.98,45.46,86.01-7.95,164.08-93.78,188.24-8.56,2.41-27.85,6.8-36.18,5.49-4.6-.73-4.94-9.46-6.42-13.25-6.98-17.85-27.77-33.42-46.91-35.1-7.22-.63-14.91,1.3-22.18.83h.01ZM318.86,143.22c-22.73,2.61-20.25,38.77,5.09,35.78,22.03-2.6,18.98-38.54-5.09-35.78ZM149.08,143.69c-20.24,2.35-19.86,32.66-.97,35.23,28.03,3.81,27.74-38.33.97-35.23ZM252.17,168.59c-3.62.79-7.17,9.54-9.54,12.54-6.45,8.13-19,8.69-24.63-.63-2.53-4.19-3-10.69-8.67-11.47-8.22-1.13-10.67,5.38-9.58,12.45,1.54,9.89,11.49,19.66,20.64,23,17.82,6.51,43.41-8.49,41.02-29.02-.45-3.87-5.43-7.7-9.24-6.86h0Z"/>
        <path class="cls-1" d="M252.17,168.59c3.81-.83,8.79,2.99,9.24,6.86,2.39,20.53-23.2,35.53-41.02,29.02-9.15-3.34-19.1-13.12-20.64-23-1.1-7.06,1.35-13.58,9.58-12.45,5.67.78,6.14,7.29,8.67,11.47,5.63,9.32,18.18,8.76,24.63.63,2.38-3,5.92-11.74,9.54-12.54h0Z"/>
        <path class="cls-1" d="M318.86,143.22c24.07-2.76,27.12,33.18,5.09,35.78-25.35,2.99-27.82-33.17-5.09-35.78Z"/>
        <path class="cls-1" d="M149.08,143.69c26.77-3.1,27.07,39.04-.97,35.23-18.89-2.57-19.27-32.88.97-35.23Z"/>
      </g>
    </g>
  </g>
</svg>